<svg id="Layer_1" data-name="Layer 1" xmlns="http://www.w3.org/2000/svg" viewBox="0 0 1126.55 225.77"><defs><style>.cls-1{fill:#69b245;}.cls-2{fill:#fff;}</style></defs><title>kalle.pyorala</title><path class="cls-1" d="M189.5,309.5a100,100,0,1,1,80.86-158.83,71,71,0,0,1,8.14-5A109.5,109.5,0,1,0,278,274a72.33,72.33,0,0,1-8.09-5A99.84,99.84,0,0,1,189.5,309.5Z" transform="translate(-80 -100)"/><path class="cls-2" d="M241.2,191a20,20,0,1,1-21.69-26.75A53.33,53.33,0,1,0,241.2,191ZM190,222a11.5,11.5,0,1,1,11.5-11.5A11.5,11.5,0,0,1,190,222Z" transform="translate(-80 -100)"/><path class="cls-2" d="M190,120.5A88.5,88.5,0,1,0,278.5,209,88.5,88.5,0,0,0,190,120.5Zm0,164.22A75.72,75.72,0,1,1,265.72,209,75.72,75.72,0,0,1,190,284.72Z" transform="translate(-80 -100)"/><path class="cls-2" d="M427.85,156.58Q423,161.86,417,168.29t-12.64,13.17q-6.58,6.75-13.09,13.25T379,206.8a137.08,137.08,0,0,1,14.1,11.48q7.44,6.81,14.57,14.57t13.41,15.8A132.94,132.94,0,0,1,431.56,264H413.9a153.81,153.81,0,0,0-10.7-14.65q-6-7.35-12.79-14.1t-13.64-12.48a120.59,120.59,0,0,0-13.4-9.77v51h-15V156.58h15V204q5.42-5.11,11.93-11.55t12.87-12.95q6.34-6.5,12-12.47t9.53-10.47Z" transform="translate(-80 -100)"/><path class="cls-2" d="M471.4,181.38a42,42,0,0,1,14.65,2.25,23.82,23.82,0,0,1,9.61,6.36,24.12,24.12,0,0,1,5.19,9.76,47.34,47.34,0,0,1,1.55,12.48v50.38l-5.19.85c-2.23.36-4.73.69-7.52,1s-5.81.6-9.07.86-6.48.39-9.69.39a53.06,53.06,0,0,1-12.55-1.4,28,28,0,0,1-9.92-4.42,20.16,20.16,0,0,1-6.51-8A28,28,0,0,1,439.62,240a23,23,0,0,1,2.72-11.47,21.61,21.61,0,0,1,7.36-7.75,34.19,34.19,0,0,1,10.85-4.33,58.52,58.52,0,0,1,13-1.4c1.45,0,2.94.08,4.49.23s3,.37,4.42.62,2.61.49,3.64.7,1.76.36,2.17.47v-4a32.26,32.26,0,0,0-.77-7.05,16.28,16.28,0,0,0-2.79-6.2,14.25,14.25,0,0,0-5.5-4.34,21.69,21.69,0,0,0-9.07-1.62,68.39,68.39,0,0,0-12.48,1,44.81,44.81,0,0,0-8,2.09L448,185a43.93,43.93,0,0,1,9.3-2.4A79.91,79.91,0,0,1,471.4,181.38Zm1.24,72.24q5.12,0,9.07-.24a39.31,39.31,0,0,0,6.58-.85v-24a18.66,18.66,0,0,0-5-1.31,56.2,56.2,0,0,0-8.45-.55,54.68,54.68,0,0,0-6.9.47,21.22,21.22,0,0,0-6.66,1.94,14.14,14.14,0,0,0-5,4,10.59,10.59,0,0,0-2,6.74q0,7.76,5,10.77T472.64,253.62Z" transform="translate(-80 -100)"/><path class="cls-2" d="M550.91,265.55q-13.33-.32-18.91-5.74t-5.58-16.89V146.2l14.42-2.48V240.6a23,23,0,0,0,.62,5.88,8,8,0,0,0,2,3.73,8.82,8.82,0,0,0,3.72,2.09,39,39,0,0,0,5.74,1.16Z" transform="translate(-80 -100)"/><path class="cls-2" d="M593.69,265.55q-13.34-.32-18.91-5.74t-5.58-16.89V146.2l14.42-2.48V240.6a23,23,0,0,0,.62,5.88,8,8,0,0,0,2,3.73A8.82,8.82,0,0,0,590,252.3a39,39,0,0,0,5.74,1.16Z" transform="translate(-80 -100)"/><path class="cls-2" d="M607.8,223.86a51.35,51.35,0,0,1,3.1-18.68,39,39,0,0,1,8.21-13.26,33.46,33.46,0,0,1,11.78-7.9,36.72,36.72,0,0,1,13.64-2.64q16.28,0,25,10.16t8.68,30.92v2.4a22.64,22.64,0,0,1-.16,2.72H622.83q.93,12.55,7.29,19.06T650,253.15a52.71,52.71,0,0,0,12.78-1.32,45.94,45.94,0,0,0,7.83-2.55l2,12.09a43.51,43.51,0,0,1-9.23,2.94,65.66,65.66,0,0,1-15,1.55,47.46,47.46,0,0,1-18.22-3.18,33.94,33.94,0,0,1-12.63-8.76,35.53,35.53,0,0,1-7.36-13.25A56.06,56.06,0,0,1,607.8,223.86ZM663.13,216q.15-9.76-4.88-16t-13.87-6.28a19,19,0,0,0-8.76,1.94,20.52,20.52,0,0,0-6.43,5,23,23,0,0,0-4.11,7.12,35.35,35.35,0,0,0-1.94,8.22Z" transform="translate(-80 -100)"/><path class="cls-1" d="M728.85,155.5q22.64,0,34.8,8.6t12.17,25.65a34.86,34.86,0,0,1-3.34,15.89,27.26,27.26,0,0,1-9.61,10.7,43.79,43.79,0,0,1-15.26,6,100.76,100.76,0,0,1-20.31,1.87H715.37V264h-15V158.13A86,86,0,0,1,714.51,156Q722.34,155.5,728.85,155.5Zm1.24,13.17q-9.62,0-14.72.47V211.3h11.31a86.46,86.46,0,0,0,14-1,31.31,31.31,0,0,0,10.46-3.41,16.84,16.84,0,0,0,6.59-6.59A21.84,21.84,0,0,0,760,189.6a19.76,19.76,0,0,0-2.4-10.23,18,18,0,0,0-6.51-6.43,28.36,28.36,0,0,0-9.53-3.34A67.88,67.88,0,0,0,730.09,168.67Z" transform="translate(-80 -100)"/><path class="cls-1" d="M786.2,279a28.59,28.59,0,0,0,4.41,1.47,21.66,21.66,0,0,0,5.35.7q8.52,0,13.33-3.8T818,265.08q-9.76-18.58-18.21-39.44a343.2,343.2,0,0,1-14-42.24h15.5q1.71,7,4.11,15T810.69,215q2.94,8.52,6.35,17t7.13,16.43q5.9-16.27,10.23-32.24t8.22-32.86H857.5q-5.58,22.78-12.4,43.79t-14.73,39.29a83.32,83.32,0,0,1-6.43,12,36.34,36.34,0,0,1-7.36,8.3,26.82,26.82,0,0,1-9.07,4.8,38.84,38.84,0,0,1-11.39,1.55,29.79,29.79,0,0,1-3.57-.23c-1.24-.16-2.45-.37-3.64-.62s-2.27-.54-3.26-.85a16.62,16.62,0,0,1-2.09-.78Z" transform="translate(-80 -100)"/><path class="cls-1" d="M944.3,223.7a51,51,0,0,1-2.79,17.36,39.65,39.65,0,0,1-7.83,13.33,34.37,34.37,0,0,1-12,8.6,39.59,39.59,0,0,1-30.38,0,34.41,34.41,0,0,1-12-8.6,39.63,39.63,0,0,1-7.82-13.33,55.16,55.16,0,0,1,0-34.64A39.52,39.52,0,0,1,879.27,193a34.41,34.41,0,0,1,12-8.6,39.59,39.59,0,0,1,30.38,0,34.37,34.37,0,0,1,12,8.6,39.54,39.54,0,0,1,7.83,13.41A51.17,51.17,0,0,1,944.3,223.7Zm-52.55-55.18a8.86,8.86,0,0,1-6.28-2.56,9.36,9.36,0,0,1,0-13.17,9,9,0,0,1,12.56,0A9.36,9.36,0,0,1,898,166,8.86,8.86,0,0,1,891.75,168.52Zm37.51,55.18q0-13.63-6.12-21.62t-16.66-8q-10.54,0-16.67,8t-6.12,21.62q0,13.63,6.12,21.62t16.67,8q10.53,0,16.66-8T929.26,223.7Zm-8.06-55.18a8.86,8.86,0,0,1-6.28-2.56,9.36,9.36,0,0,1,0-13.17,9,9,0,0,1,12.56,0,9.36,9.36,0,0,1,0,13.17A8.86,8.86,0,0,1,921.2,168.52Z" transform="translate(-80 -100)"/><path class="cls-1" d="M994.83,181.69c1.24,0,2.65.08,4.26.24s3.17.36,4.73.62,3,.52,4.26.77a25.68,25.68,0,0,1,2.87.7l-2.49,12.56a46.67,46.67,0,0,0-5.65-1.48,50.24,50.24,0,0,0-10.15-.85,38.39,38.39,0,0,0-8,.85q-3.95.85-5.19,1.17V264H965.07V186.81a98,98,0,0,1,12.71-3.49A81.91,81.91,0,0,1,994.83,181.69Z" transform="translate(-80 -100)"/><path class="cls-1" d="M1051.4,181.38a42,42,0,0,1,14.65,2.25,23.82,23.82,0,0,1,9.61,6.36,24.24,24.24,0,0,1,5.19,9.76,47.34,47.34,0,0,1,1.55,12.48v50.38l-5.19.85c-2.23.36-4.73.69-7.52,1s-5.81.6-9.07.86-6.49.39-9.69.39a53,53,0,0,1-12.55-1.4,27.94,27.94,0,0,1-9.92-4.42,20.16,20.16,0,0,1-6.51-8,28,28,0,0,1-2.33-11.94,23,23,0,0,1,2.72-11.47,21.61,21.61,0,0,1,7.36-7.75,34.1,34.1,0,0,1,10.85-4.33,58.52,58.52,0,0,1,13-1.4c1.44,0,2.94.08,4.49.23s3,.37,4.42.62,2.61.49,3.64.7,1.76.36,2.17.47v-4a32.88,32.88,0,0,0-.77-7.05,16.28,16.28,0,0,0-2.79-6.2,14.33,14.33,0,0,0-5.5-4.34,21.69,21.69,0,0,0-9.07-1.62,68.32,68.32,0,0,0-12.48,1,44.57,44.57,0,0,0-8,2.09L1028,185a43.93,43.93,0,0,1,9.3-2.4A79.83,79.83,0,0,1,1051.4,181.38ZM1039,168.52a8.86,8.86,0,0,1-6.28-2.56,9.36,9.36,0,0,1,0-13.17,9,9,0,0,1,12.56,0,9.36,9.36,0,0,1,0,13.17A8.88,8.88,0,0,1,1039,168.52Zm13.64,85.1q5.11,0,9.07-.24a39.31,39.31,0,0,0,6.58-.85v-24a18.66,18.66,0,0,0-5-1.31,56.29,56.29,0,0,0-8.45-.55,54.68,54.68,0,0,0-6.9.47,21.22,21.22,0,0,0-6.66,1.94,14.14,14.14,0,0,0-5,4,10.53,10.53,0,0,0-2,6.74q0,7.76,5,10.77T1052.64,253.62Zm15.81-85.1a8.86,8.86,0,0,1-6.28-2.56,9.36,9.36,0,0,1,0-13.17,9,9,0,0,1,12.56,0,9.36,9.36,0,0,1,0,13.17A8.88,8.88,0,0,1,1068.45,168.52Z" transform="translate(-80 -100)"/><path class="cls-1" d="M1130.91,265.55q-13.34-.32-18.91-5.74t-5.58-16.89V146.2l14.42-2.48V240.6a23,23,0,0,0,.62,5.88,8,8,0,0,0,2,3.73,8.82,8.82,0,0,0,3.72,2.09,39,39,0,0,0,5.74,1.16Z" transform="translate(-80 -100)"/><path class="cls-1" d="M1175.55,181.38a42,42,0,0,1,14.65,2.25,23.82,23.82,0,0,1,9.61,6.36,24.12,24.12,0,0,1,5.19,9.76,47.34,47.34,0,0,1,1.55,12.48v50.38l-5.19.85c-2.23.36-4.73.69-7.52,1s-5.81.6-9.07.86-6.48.39-9.69.39a53.06,53.06,0,0,1-12.55-1.4,28,28,0,0,1-9.92-4.42,20.16,20.16,0,0,1-6.51-8,28,28,0,0,1-2.32-11.94,23,23,0,0,1,2.71-11.47,21.61,21.61,0,0,1,7.36-7.75,34.19,34.19,0,0,1,10.85-4.33,58.52,58.52,0,0,1,13-1.4c1.45,0,3,.08,4.5.23s3,.37,4.41.62,2.61.49,3.65.7,1.75.36,2.17.47v-4a32.27,32.27,0,0,0-.78-7.05,16.28,16.28,0,0,0-2.79-6.2,14.25,14.25,0,0,0-5.5-4.34,21.69,21.69,0,0,0-9.07-1.62,68.39,68.39,0,0,0-12.48,1,44.81,44.81,0,0,0-8,2.09l-1.7-11.93a43.76,43.76,0,0,1,9.3-2.4A79.8,79.8,0,0,1,1175.55,181.38Zm-12.4-12.86a8.86,8.86,0,0,1-6.28-2.56,9.36,9.36,0,0,1,0-13.17,9,9,0,0,1,12.56,0,9.36,9.36,0,0,1,0,13.17A8.86,8.86,0,0,1,1163.15,168.52Zm13.64,85.1q5.12,0,9.07-.24a39.59,39.59,0,0,0,6.59-.85v-24a18.86,18.86,0,0,0-5-1.31,56.2,56.2,0,0,0-8.45-.55,54.68,54.68,0,0,0-6.9.47,21.22,21.22,0,0,0-6.66,1.94,14.14,14.14,0,0,0-5,4,10.58,10.58,0,0,0-2,6.74q0,7.76,5,10.77T1176.79,253.62Zm15.81-85.1a8.86,8.86,0,0,1-6.28-2.56,9.36,9.36,0,0,1,0-13.17,9,9,0,0,1,12.56,0,9.36,9.36,0,0,1,0,13.17A8.86,8.86,0,0,1,1192.6,168.52Z" transform="translate(-80 -100)"/><path class="cls-2" d="M874,319c-.53-.89-1.13-1.88-1.82-3s-1.42-2.25-2.21-3.44-1.61-2.39-2.46-3.61-1.7-2.41-2.54-3.55-1.66-2.21-2.45-3.22-1.53-1.9-2.2-2.67V319h-3.42V294.05h2.78c1.12,1.2,2.33,2.6,3.61,4.2s2.56,3.24,3.82,4.93,2.45,3.35,3.56,5,2.06,3.09,2.83,4.36V294.05h3.42V319Z" transform="translate(-80 -100)"/><path class="cls-2" d="M889,299.81a9.88,9.88,0,0,1,3.4.52,5.43,5.43,0,0,1,2.23,1.48,5.53,5.53,0,0,1,1.21,2.27,11,11,0,0,1,.36,2.9v11.7l-1.2.19c-.52.09-1.1.17-1.75.24s-1.35.14-2.11.2-1.5.09-2.25.09a12.05,12.05,0,0,1-2.91-.33,6.58,6.58,0,0,1-2.31-1,4.7,4.7,0,0,1-1.51-1.86,6.49,6.49,0,0,1-.54-2.77,5.31,5.31,0,0,1,.63-2.66A4.92,4.92,0,0,1,884,309a7.7,7.7,0,0,1,2.52-1,13.5,13.5,0,0,1,3-.33,9.51,9.51,0,0,1,1.05.06c.36,0,.7.08,1,.14l.84.16.5.11v-.93a8.15,8.15,0,0,0-.17-1.64,3.94,3.94,0,0,0-.65-1.44,3.33,3.33,0,0,0-1.28-1,5,5,0,0,0-2.11-.38,15.31,15.31,0,0,0-2.89.24,9.68,9.68,0,0,0-1.86.48l-.39-2.77a10.39,10.39,0,0,1,2.15-.56A18.77,18.77,0,0,1,889,299.81Zm.29,16.78q1.18,0,2.1-.06a9.06,9.06,0,0,0,1.53-.19v-5.58a4.12,4.12,0,0,0-1.17-.31,13.45,13.45,0,0,0-2-.13,13,13,0,0,0-1.6.11,4.89,4.89,0,0,0-1.55.45,3.27,3.27,0,0,0-1.17.94,2.46,2.46,0,0,0-.47,1.56,2.71,2.71,0,0,0,1.16,2.51A6,6,0,0,0,889.33,316.59Z" transform="translate(-80 -100)"/><path class="cls-2" d="M905,300.28h7.1v2.81H905v8.64a10.6,10.6,0,0,0,.22,2.32,3.44,3.44,0,0,0,.65,1.44,2.39,2.39,0,0,0,1.08.74,4.87,4.87,0,0,0,1.51.21,7.05,7.05,0,0,0,2.43-.34l1.28-.48.65,2.77a12.26,12.26,0,0,1-1.77.63,10.1,10.1,0,0,1-2.88.38,8.83,8.83,0,0,1-3.15-.49,4.57,4.57,0,0,1-2-1.46,6,6,0,0,1-1.06-2.39,16.15,16.15,0,0,1-.3-3.3v-16.7l3.34-.58Z" transform="translate(-80 -100)"/><path class="cls-2" d="M931.38,318.46c-.77.19-1.79.4-3,.61a25.6,25.6,0,0,1-4.37.33,9.31,9.31,0,0,1-3.64-.63A5.88,5.88,0,0,1,918,317a7.27,7.27,0,0,1-1.3-2.71,14.48,14.48,0,0,1-.39-3.48V300.28h3.34v9.79c0,2.28.36,3.91,1.08,4.9a4.23,4.23,0,0,0,3.64,1.47l1.12,0,1.08-.09.91-.11a2.78,2.78,0,0,0,.6-.13v-15.8h3.35Z" transform="translate(-80 -100)"/><path class="cls-2" d="M944.16,299.88a9.63,9.63,0,0,1,1,.06c.37,0,.73.08,1.09.14l1,.18c.3.06.53.12.67.16l-.58,2.92A10,10,0,0,0,946,303a11.65,11.65,0,0,0-2.36-.2,8.88,8.88,0,0,0-1.85.2l-1.21.27V319h-3.35V301.07a22.46,22.46,0,0,1,3-.81A19,19,0,0,1,944.16,299.88Z" transform="translate(-80 -100)"/><path class="cls-2" d="M950.2,309.68a11.92,11.92,0,0,1,.72-4.34,9.11,9.11,0,0,1,1.91-3.08,7.75,7.75,0,0,1,2.74-1.84,8.71,8.71,0,0,1,3.17-.61,7.2,7.2,0,0,1,5.79,2.36c1.35,1.57,2,4,2,7.18v.56a4.09,4.09,0,0,1,0,.63H953.7a6.82,6.82,0,0,0,1.69,4.43,6.18,6.18,0,0,0,4.61,1.51,11.89,11.89,0,0,0,3-.31,10.21,10.21,0,0,0,1.82-.59l.47,2.81a10.38,10.38,0,0,1-2.14.68,15.26,15.26,0,0,1-3.48.36,10.8,10.8,0,0,1-4.22-.74,7.93,7.93,0,0,1-2.94-2,8.21,8.21,0,0,1-1.71-3.08A13.08,13.08,0,0,1,950.2,309.68Zm12.85-1.84a5.61,5.61,0,0,0-1.13-3.73,3.9,3.9,0,0,0-3.22-1.45,4.37,4.37,0,0,0-2,.45,4.82,4.82,0,0,0-1.5,1.17,5.39,5.39,0,0,0-.95,1.65,8,8,0,0,0-.45,1.91Z" transform="translate(-80 -100)"/><path class="cls-2" d="M986.74,293.8q5.26,0,8.08,2a6.81,6.81,0,0,1,2.83,6,8.18,8.18,0,0,1-.77,3.69,6.36,6.36,0,0,1-2.24,2.48,10.12,10.12,0,0,1-3.54,1.39,24,24,0,0,1-4.72.43h-2.77V319h-3.49V294.41a19.23,19.23,0,0,1,3.29-.48C984.62,293.84,985.73,293.8,986.74,293.8Zm.29,3.06c-1.49,0-2.63,0-3.42.11v9.79h2.63a21.08,21.08,0,0,0,3.24-.23,7.23,7.23,0,0,0,2.43-.8,3.88,3.88,0,0,0,1.53-1.53,5,5,0,0,0,.54-2.48,4.63,4.63,0,0,0-.56-2.38,4.23,4.23,0,0,0-1.51-1.49,6.55,6.55,0,0,0-2.22-.77A15.08,15.08,0,0,0,987,296.86Z" transform="translate(-80 -100)"/><path class="cls-2" d="M1001.9,319V291.64l3.35-.58v9.58a11.19,11.19,0,0,1,2-.56,11.68,11.68,0,0,1,2.11-.2,9.51,9.51,0,0,1,3.71.63,5.82,5.82,0,0,1,2.36,1.77,6.88,6.88,0,0,1,1.24,2.72,15.72,15.72,0,0,1,.36,3.49V319h-3.35v-9.79a16.5,16.5,0,0,0-.23-2.95,5,5,0,0,0-.78-2,3,3,0,0,0-1.44-1.1,6.26,6.26,0,0,0-2.23-.34,8.74,8.74,0,0,0-1.12.07c-.38,0-.75.1-1.09.16s-.66.13-.94.2a4.44,4.44,0,0,0-.59.18V319Z" transform="translate(-80 -100)"/><path class="cls-2" d="M1039.09,309.64a11.87,11.87,0,0,1-.65,4,9.27,9.27,0,0,1-1.82,3.1,8.08,8.08,0,0,1-2.79,2,9.25,9.25,0,0,1-7.06,0,8.08,8.08,0,0,1-2.79-2,9.25,9.25,0,0,1-1.81-3.1,12.76,12.76,0,0,1,0-8,9.15,9.15,0,0,1,1.81-3.12,8.08,8.08,0,0,1,2.79-2,9.25,9.25,0,0,1,7.06,0,8.08,8.08,0,0,1,2.79,2,9.17,9.17,0,0,1,1.82,3.12A11.92,11.92,0,0,1,1039.09,309.64Zm-3.5,0a8,8,0,0,0-1.42-5,5,5,0,0,0-7.74,0,9.58,9.58,0,0,0,0,10,5,5,0,0,0,7.74,0A8,8,0,0,0,1035.59,309.64Z" transform="translate(-80 -100)"/><path class="cls-2" d="M1047,300.28h7.09v2.81H1047v8.64a10,10,0,0,0,.22,2.32,3.44,3.44,0,0,0,.65,1.44,2.28,2.28,0,0,0,1.08.74,4.87,4.87,0,0,0,1.51.21,7.09,7.09,0,0,0,2.43-.34l1.28-.48.64,2.77a11.58,11.58,0,0,1-1.76.63,10.1,10.1,0,0,1-2.88.38,8.83,8.83,0,0,1-3.15-.49,4.57,4.57,0,0,1-2-1.46,5.82,5.82,0,0,1-1.06-2.39,15.43,15.43,0,0,1-.31-3.3v-16.7l3.35-.58Z" transform="translate(-80 -100)"/><path class="cls-2" d="M1074.51,309.64a11.87,11.87,0,0,1-.65,4,9.27,9.27,0,0,1-1.82,3.1,8.08,8.08,0,0,1-2.79,2,9.23,9.23,0,0,1-7,0,8.08,8.08,0,0,1-2.79-2,9.27,9.27,0,0,1-1.82-3.1,12.76,12.76,0,0,1,0-8,9.17,9.17,0,0,1,1.82-3.12,8.08,8.08,0,0,1,2.79-2,9.23,9.23,0,0,1,7,0,8.08,8.08,0,0,1,2.79,2,9.17,9.17,0,0,1,1.82,3.12A11.92,11.92,0,0,1,1074.51,309.64Zm-3.49,0a8.09,8.09,0,0,0-1.42-5,5,5,0,0,0-7.74,0,9.53,9.53,0,0,0,0,10,5,5,0,0,0,7.74,0A8.09,8.09,0,0,0,1071,309.64Z" transform="translate(-80 -100)"/><path class="cls-2" d="M1091.07,317.13a9.31,9.31,0,0,1-1.67.74,8.53,8.53,0,0,1-2.9.45,9.33,9.33,0,0,1-3.19-.54,7,7,0,0,1-2.61-1.68,8.1,8.1,0,0,1-1.76-2.82,11.37,11.37,0,0,1-.65-4,11.07,11.07,0,0,1,.61-3.76,8.38,8.38,0,0,1,1.78-3,8.05,8.05,0,0,1,2.87-1.94,9.8,9.8,0,0,1,3.81-.71,21.36,21.36,0,0,1,4.09.35c1.16.23,2.14.43,2.93.63v16.7q0,4.32-2.23,6.26c-1.49,1.3-3.74,1.95-6.77,1.95a18.68,18.68,0,0,1-3.33-.29,19.58,19.58,0,0,1-2.72-.68l.62-2.92a15.52,15.52,0,0,0,2.46.7,14.38,14.38,0,0,0,3,.31,6.36,6.36,0,0,0,4.31-1.19,4.88,4.88,0,0,0,1.31-3.78Zm0-13.9a13.21,13.21,0,0,0-1.35-.27,17,17,0,0,0-2.28-.12,5.08,5.08,0,0,0-4.16,1.76,7.14,7.14,0,0,0-1.46,4.68,8.11,8.11,0,0,0,.42,2.77,5.32,5.32,0,0,0,1.11,1.91,4.46,4.46,0,0,0,1.62,1.12,5.12,5.12,0,0,0,1.89.36,7.63,7.63,0,0,0,2.45-.38,6.13,6.13,0,0,0,1.76-.88Z" transform="translate(-80 -100)"/><path class="cls-2" d="M1107.16,299.88a9.32,9.32,0,0,1,1,.06c.37,0,.74.08,1.1.14l1,.18c.3.06.52.12.67.16l-.58,2.92A10.46,10.46,0,0,0,1109,303a11.72,11.72,0,0,0-2.36-.2,9,9,0,0,0-1.86.2l-1.2.27V319h-3.35V301.07a22.27,22.27,0,0,1,3-.81A19.15,19.15,0,0,1,1107.16,299.88Z" transform="translate(-80 -100)"/><path class="cls-2" d="M1120.3,299.81a9.88,9.88,0,0,1,3.4.52,5.43,5.43,0,0,1,2.23,1.48,5.53,5.53,0,0,1,1.21,2.27,11,11,0,0,1,.36,2.9v11.7l-1.21.19q-.76.13-1.74.24c-.65.07-1.35.14-2.11.2s-1.5.09-2.25.09a12.11,12.11,0,0,1-2.91-.33,6.58,6.58,0,0,1-2.31-1,4.78,4.78,0,0,1-1.51-1.86,6.49,6.49,0,0,1-.54-2.77,5.31,5.31,0,0,1,.63-2.66,4.92,4.92,0,0,1,1.71-1.8,7.7,7.7,0,0,1,2.52-1,13.5,13.5,0,0,1,3-.33,9.51,9.51,0,0,1,1,.06c.36,0,.7.08,1,.14l.84.16.5.11v-.93a6.93,6.93,0,0,0-.18-1.64,3.76,3.76,0,0,0-.64-1.44,3.33,3.33,0,0,0-1.28-1,5,5,0,0,0-2.11-.38,15.31,15.31,0,0,0-2.89.24,9.68,9.68,0,0,0-1.86.48l-.39-2.77a10.35,10.35,0,0,1,2.16-.56A18.49,18.49,0,0,1,1120.3,299.81Zm.29,16.78c.79,0,1.49,0,2.11-.06a9.07,9.07,0,0,0,1.52-.19v-5.58a4.12,4.12,0,0,0-1.17-.31,13.45,13.45,0,0,0-2-.13,13,13,0,0,0-1.6.11,4.89,4.89,0,0,0-1.55.45,3.27,3.27,0,0,0-1.17.94,2.46,2.46,0,0,0-.47,1.56,2.71,2.71,0,0,0,1.16,2.51A6,6,0,0,0,1120.59,316.59Z" transform="translate(-80 -100)"/><path class="cls-2" d="M1149.64,309.68a13.26,13.26,0,0,1-.56,3.92,8.92,8.92,0,0,1-1.64,3.1,7.49,7.49,0,0,1-2.64,2,8.51,8.51,0,0,1-3.58.72,8.71,8.71,0,0,1-2.87-.43,9,9,0,0,1-1.85-.83v7.49h-3.35v-24.8c.79-.2,1.78-.4,3-.63a21.84,21.84,0,0,1,4.12-.35,10.41,10.41,0,0,1,3.89.69,8.2,8.2,0,0,1,2.95,1.94,8.51,8.51,0,0,1,1.89,3.08A11.66,11.66,0,0,1,1149.64,309.68Zm-3.49,0a7.17,7.17,0,0,0-1.62-5,5.57,5.57,0,0,0-4.32-1.77,20.08,20.08,0,0,0-2.36.11,10.39,10.39,0,0,0-1.35.25V315a6.85,6.85,0,0,0,1.76,1,6.69,6.69,0,0,0,2.52.47,5.36,5.36,0,0,0,2.47-.52,4.57,4.57,0,0,0,1.67-1.44,5.89,5.89,0,0,0,.94-2.16A12,12,0,0,0,1146.15,309.68Z" transform="translate(-80 -100)"/><path class="cls-2" d="M1154.46,319V291.64l3.35-.58v9.58a11.3,11.3,0,0,1,2-.56,11.68,11.68,0,0,1,2.11-.2,9.46,9.46,0,0,1,3.7.63,5.76,5.76,0,0,1,2.36,1.77,6.74,6.74,0,0,1,1.24,2.72,15.72,15.72,0,0,1,.36,3.49V319h-3.34v-9.79a15.54,15.54,0,0,0-.24-2.95,4.86,4.86,0,0,0-.77-2,3,3,0,0,0-1.44-1.1,6.3,6.3,0,0,0-2.23-.34,8.63,8.63,0,0,0-1.12.07l-1.1.16c-.35.06-.66.13-.93.2a4.71,4.71,0,0,0-.6.18V319Z" transform="translate(-80 -100)"/><path class="cls-2" d="M1174.08,309.68a11.92,11.92,0,0,1,.72-4.34,9.11,9.11,0,0,1,1.91-3.08,7.75,7.75,0,0,1,2.74-1.84,8.71,8.71,0,0,1,3.17-.61,7.2,7.2,0,0,1,5.79,2.36c1.35,1.57,2,4,2,7.18v.56a4.09,4.09,0,0,1,0,.63h-12.81a6.82,6.82,0,0,0,1.69,4.43,6.18,6.18,0,0,0,4.61,1.51,12,12,0,0,0,3-.31,10.34,10.34,0,0,0,1.81-.59l.47,2.81a10.38,10.38,0,0,1-2.14.68,15.23,15.23,0,0,1-3.47.36,10.81,10.81,0,0,1-4.23-.74,7.93,7.93,0,0,1-2.94-2,8.21,8.21,0,0,1-1.71-3.08A13.08,13.08,0,0,1,1174.08,309.68Zm12.86-1.84a5.67,5.67,0,0,0-1.14-3.73,3.9,3.9,0,0,0-3.22-1.45,4.37,4.37,0,0,0-2,.45,4.82,4.82,0,0,0-1.5,1.17,5.39,5.39,0,0,0-1,1.65,8,8,0,0,0-.45,1.91Z" transform="translate(-80 -100)"/><path class="cls-2" d="M1202.27,299.88a9.32,9.32,0,0,1,1,.06c.37,0,.74.08,1.1.14l1,.18c.3.06.52.12.67.16l-.58,2.92a10.46,10.46,0,0,0-1.31-.34,11.72,11.72,0,0,0-2.36-.2,9,9,0,0,0-1.86.2l-1.2.27V319h-3.35V301.07a22.27,22.27,0,0,1,3-.81A19.15,19.15,0,0,1,1202.27,299.88Z" transform="translate(-80 -100)"/></svg>