<?xml version="1.0" standalone="no"?>
<!DOCTYPE svg PUBLIC "-//W3C//DTD SVG 20010904//EN"
 "http://www.w3.org/TR/2001/REC-SVG-20010904/DTD/svg10.dtd">
<svg version="1.0" xmlns="http://www.w3.org/2000/svg"
 width="1000.000000pt" height="1000.000000pt" viewBox="0 0 1000.000000 1000.000000"
 preserveAspectRatio="xMidYMid meet">
<metadata>
Created by potrace 1.11, written by Peter Selinger 2001-2013
</metadata>
<g transform="translate(0.000000,1000.000000) scale(0.100000,-0.100000)"
fill="#000000" stroke="none">
<path d="M4768 9565 c-2 -2 -52 -6 -111 -10 -60 -4 -118 -8 -130 -10 -12 -2
-49 -6 -82 -10 -97 -11 -127 -15 -190 -26 -33 -6 -71 -13 -85 -15 -14 -3 -36
-7 -50 -9 -60 -12 -77 -16 -105 -21 -63 -11 -296 -74 -415 -112 -398 -127
-813 -329 -1155 -560 -87 -59 -217 -153 -225 -162 -3 -4 -14 -13 -26 -21 -22
-15 -72 -56 -188 -153 -173 -145 -453 -443 -641 -680 -202 -256 -444 -675
-584 -1011 -155 -372 -281 -846 -317 -1195 -3 -36 -8 -67 -10 -70 -1 -3 -6
-55 -11 -115 -15 -209 -8 -772 12 -875 2 -8 6 -44 10 -80 4 -36 8 -72 10 -80
1 -8 6 -35 10 -60 3 -25 9 -58 11 -75 72 -459 293 -1071 533 -1473 17 -29 31
-55 31 -58 0 -3 8 -17 18 -32 11 -15 59 -88 107 -162 211 -322 450 -600 765
-890 80 -74 347 -282 459 -359 358 -244 757 -441 1166 -576 140 -46 463 -130
542 -141 26 -3 51 -8 54 -10 3 -2 68 -12 145 -23 273 -39 362 -45 649 -46 224
0 476 10 508 20 7 2 39 6 72 9 33 4 69 8 81 10 12 2 45 7 75 11 48 6 94 14
169 30 14 2 50 10 80 16 30 5 69 14 85 19 17 5 41 11 55 14 43 8 211 55 305
86 587 188 1154 512 1625 929 204 181 497 499 622 676 36 50 38 56 21 62 -24
9 -215 126 -274 168 l-45 32 -102 -126 c-493 -614 -1151 -1079 -1887 -1334
-91 -31 -299 -93 -342 -102 -10 -1 -38 -8 -63 -15 -25 -7 -56 -14 -70 -16 -14
-2 -36 -7 -50 -10 -116 -27 -333 -58 -500 -71 -237 -19 -690 -8 -890 22 -19 3
-66 10 -103 15 -213 31 -560 121 -780 204 -101 37 -261 103 -286 116 -9 5 -72
37 -141 70 -556 272 -1085 715 -1477 1235 -370 493 -651 1134 -756 1730 -25
137 -26 146 -33 205 -3 30 -8 63 -10 73 -1 9 -6 54 -9 100 -4 45 -9 102 -11
127 -11 107 -4 540 11 645 2 17 7 57 10 90 3 33 10 85 15 115 5 30 12 71 14
90 3 19 10 60 16 90 6 30 13 68 16 83 18 103 127 485 161 567 3 8 7 17 8 20 1
3 7 18 13 33 7 16 12 30 12 32 0 30 199 445 268 559 23 37 42 70 42 73 0 3 47
76 104 162 327 490 742 895 1249 1221 113 72 325 187 463 251 298 138 641 251
929 305 44 8 100 19 125 24 25 5 65 12 90 15 90 11 126 16 155 20 202 27 684
27 910 0 17 -2 55 -6 85 -10 74 -9 265 -42 342 -60 35 -8 74 -16 88 -18 54
-10 282 -78 410 -123 395 -137 755 -329 1115 -594 55 -40 102 -76 105 -79 3
-4 30 -26 60 -51 30 -25 68 -56 85 -70 44 -37 386 -382 412 -416 12 -16 38
-47 57 -69 20 -22 61 -75 93 -117 32 -42 61 -77 65 -78 4 0 42 23 85 50 42 28
116 74 165 102 54 31 85 55 81 62 -10 17 -86 120 -92 126 -3 3 -22 25 -40 50
-107 138 -344 392 -502 535 -467 424 -1036 755 -1637 954 -134 44 -411 119
-497 134 -16 3 -70 13 -120 22 -124 22 -132 23 -184 30 -81 11 -105 14 -166
20 -33 3 -85 8 -115 11 -55 6 -567 13 -572 9z"/>
<path d="M4897 8714 c-1 -1 -54 -4 -117 -8 -63 -3 -124 -8 -135 -10 -11 -2
-49 -7 -85 -10 -56 -5 -233 -34 -310 -50 -14 -3 -38 -8 -55 -12 -16 -3 -50
-12 -75 -19 -25 -8 -56 -16 -70 -19 -78 -15 -382 -120 -496 -172 -250 -113
-412 -202 -599 -328 -746 -503 -1284 -1260 -1515 -2136 -7 -25 -13 -52 -15
-60 -2 -8 -12 -60 -24 -115 -26 -127 -39 -204 -46 -280 -4 -33 -8 -71 -11 -85
-9 -54 -18 -242 -18 -380 0 -209 12 -377 39 -555 4 -22 8 -53 11 -70 8 -53 55
-268 70 -321 8 -28 16 -61 19 -72 9 -47 114 -345 152 -432 418 -950 1159
-1657 2109 -2013 214 -80 558 -168 749 -192 28 -3 65 -8 83 -11 17 -2 47 -6
65 -8 171 -24 587 -24 762 -1 17 3 57 7 90 10 33 3 67 8 75 10 8 2 31 6 50 9
19 3 53 8 75 11 22 4 77 15 122 25 46 11 94 22 108 24 76 14 421 127 520 171
17 7 53 23 80 35 267 116 569 300 817 498 219 174 513 481 663 692 22 30 42
57 45 60 3 3 34 50 69 105 35 55 72 112 82 127 35 52 179 335 229 453 89 206
199 566 224 731 4 21 13 75 21 119 8 44 17 105 20 135 3 30 7 71 10 90 14 106
22 521 11 600 -3 19 -8 69 -11 110 -7 82 -9 101 -24 205 -21 138 -36 213 -71
355 -28 111 -110 374 -129 415 -6 11 -29 65 -52 120 -113 272 -266 536 -457
789 -215 285 -507 568 -794 773 -103 73 -158 109 -303 196 -156 93 -445 224
-650 294 -163 55 -404 118 -525 137 -14 3 -45 8 -70 11 -25 4 -54 9 -65 11
-11 2 -45 6 -75 10 -30 3 -65 7 -77 9 -61 10 -487 26 -496 19z m408 -547 c11
-3 45 -7 75 -11 163 -20 231 -32 376 -67 471 -112 933 -348 1308 -668 84 -72
278 -267 351 -354 219 -260 404 -565 520 -857 20 -52 41 -104 45 -115 25 -60
86 -267 106 -360 14 -63 43 -218 49 -265 4 -30 9 -64 11 -74 23 -125 23 -621
-1 -746 -1 -8 -6 -37 -9 -65 -29 -219 -100 -492 -188 -715 -58 -151 -175 -386
-229 -462 -11 -14 -19 -29 -19 -32 0 -6 -102 -161 -132 -201 -223 -301 -524
-588 -828 -788 -121 -80 -448 -257 -475 -257 -3 0 -30 -11 -58 -24 -91 -41
-348 -125 -437 -142 -14 -3 -43 -10 -65 -16 -22 -5 -51 -12 -65 -14 -14 -2
-36 -7 -50 -10 -14 -3 -38 -8 -55 -10 -30 -4 -88 -12 -135 -19 -139 -20 -495
-26 -660 -12 -79 7 -253 31 -310 42 -14 3 -40 8 -59 11 -76 13 -335 89 -461
136 -169 62 -401 175 -547 266 -109 69 -318 219 -378 272 -16 15 -55 49 -85
76 -170 152 -368 379 -485 554 -28 41 -53 77 -56 80 -3 3 -36 58 -73 123 -238
416 -374 844 -414 1302 -14 163 -7 568 12 675 3 14 7 45 10 70 22 174 119 543
175 665 5 11 19 47 32 80 27 73 160 334 219 430 350 574 908 1047 1512 1283
40 16 82 33 93 37 11 5 22 9 25 10 3 1 50 16 105 34 55 18 107 34 115 36 8 2
44 11 80 20 36 9 74 19 85 21 11 2 31 6 45 9 32 7 54 11 110 20 25 4 52 9 60
10 25 5 141 17 225 24 83 7 495 5 530 -2z"/>
<path d="M4987 7235 c-1 -1 -51 -5 -110 -9 -60 -3 -111 -8 -115 -10 -4 -2 -32
-7 -63 -10 -116 -13 -296 -62 -454 -123 -668 -257 -1195 -857 -1355 -1543 -27
-115 -29 -121 -35 -166 -4 -21 -8 -50 -11 -64 -26 -147 -23 -478 6 -645 6 -33
13 -76 16 -95 3 -19 7 -43 10 -52 3 -9 7 -26 9 -37 2 -12 16 -61 30 -109 157
-527 498 -972 970 -1268 164 -103 419 -212 605 -259 17 -4 68 -16 88 -20 12
-3 30 -7 41 -9 239 -54 589 -54 861 0 41 8 86 16 99 19 14 2 70 18 125 36 634
195 1133 643 1404 1259 45 102 118 340 136 440 23 137 25 149 33 240 16 204 6
409 -31 615 -15 78 -64 263 -88 325 -9 24 -11 22 -44 -44 -150 -298 -428 -471
-754 -469 -407 1 -758 308 -817 713 -7 46 -7 208 0 240 16 79 29 125 49 177
72 193 254 381 448 463 72 30 181 61 191 54 5 -3 9 -1 9 4 0 11 -155 98 -270
150 -79 37 -274 108 -316 116 -11 2 -39 9 -64 16 -25 7 -56 14 -70 16 -14 2
-34 6 -46 9 -12 3 -39 7 -60 10 -21 4 -49 8 -61 10 -69 11 -357 27 -366 20z
m178 -1820 c119 -42 228 -139 279 -250 130 -282 -35 -607 -339 -670 -298 -61
-583 183 -568 488 10 206 153 386 354 442 68 19 205 14 274 -10z"/>
</g>
</svg>
